<?xml version="1.0" encoding="utf-8"?>
<!-- Generator: Adobe Illustrator 21.0.0, SVG Export Plug-In . SVG Version: 6.00 Build 0)  -->
<svg version="1.1" id="Calque_1" xmlns="http://www.w3.org/2000/svg" xmlns:xlink="http://www.w3.org/1999/xlink" x="0px" y="0px"
	 viewBox="0 0 612 792" style="enable-background:new 0 0 612 792;" xml:space="preserve">
<g>
	<path d="M305.8,405.4c0.2,0.8-0.4,1.1-1.4,1c-4.4-0.5-7.5-2.8-9.8-6.4c-1.5-2.3-2.2-5-2.4-7.7c-0.2-1.5,0.2-1.7,1.7-1.4
		c3.5,0.6,6.3,2.2,8.4,5C304.4,398.5,305.5,401.6,305.8,405.4z"/>
	<path d="M306.7,404.8c0.5-6.5,4.7-12.9,12-14c1.5-0.2,1.8,0.1,1.6,1.6c-0.5,3.7-1.7,7.1-4.3,9.9c-2.1,2.2-4.6,3.6-7.7,4
		C306.7,406.5,306.7,406.4,306.7,404.8z"/>
	<path d="M306.2,401.6c-0.7-2-1.3-4.1-2.8-5.6c-1.5-1.6-1.3-3.1-0.8-4.9c0.6-2.3,1.6-4.3,3-6.2c0.4-0.5,0.7-0.7,1.2,0
		c2,2.5,3,5.4,3.5,8.5c0.1,0.6-0.1,1-0.4,1.4C308.2,396.8,307,399.1,306.2,401.6z"/>
	<path d="M303.9,407.3c-2.9,1.4-5.9,1.5-8.9,0.3c-3.4-1.4-5.7-3.8-7.4-7c-0.4-0.7-0.3-1,0.4-1.4c1.1-0.5,2.1-0.8,3.3-1.1
		c0.9-0.2,1.3,0,1.7,0.8c1.6,3.3,4,5.9,7.5,7.4C301.6,406.7,302.7,407,303.9,407.3z"/>
	<path d="M308.5,407.3c2.8-0.5,5.2-1.7,7.3-3.6c1.6-1.4,2.8-3.1,3.6-5c0.3-0.8,0.8-0.9,1.5-0.7c1.1,0.3,2.2,0.6,3.3,1.1
		c0.7,0.3,0.9,0.7,0.5,1.4c-2.2,4.2-5.5,7-10.4,7.8C312.3,408.6,310.4,408.1,308.5,407.3z"/>
	<path d="M311.2,393.4c-0.1-0.4-0.1-0.6-0.1-0.8c-0.5-2.2-0.2-2.8,1.9-3.7c0.5-0.2,0.8-0.1,1,0.5c0.3,1.1,0.5,2.2-1,2.7
		C312.3,392.3,311.8,392.9,311.2,393.4z"/>
	<path d="M301.3,393.3c-1-0.6-1.9-1.1-2.6-1.8c-0.8-0.7-0.2-1.6,0-2.3c0.3-0.8,0.8,0,1.3,0.1c0.2,0,0.3,0.2,0.4,0.2
		c1.2,0.5,1.7,1.3,1.1,2.6C301.4,392.5,301.4,392.8,301.3,393.3z"/>
</g>
</svg>
